<svg xmlns="http://www.w3.org/2000/svg" width="1920" height="1080"><path d="M-207,-205L174,-207L392,-237Z" fill="#e4eff5" stroke="#e4eff5" stroke-width="1.51"/><path d="M-207,-205L392,-237L530,-249Z" fill="#dfeaf3" stroke="#dfeaf3" stroke-width="1.51"/><path d="M530,-249L768,-233L843,-236Z" fill="#c7d6e8" stroke="#c7d6e8" stroke-width="1.51"/><path d="M762,1317L82,1332L893,1333Z" fill="#836796" stroke="#836796" stroke-width="1.51"/><path d="M82,1332L-11,1341L893,1333Z" fill="#8e6f9a" stroke="#8e6f9a" stroke-width="1.51"/><path d="M530,-249L843,-236L1036,-248Z" fill="#c4d1e5" stroke="#c4d1e5" stroke-width="1.51"/><path d="M530,-249L1036,-248L1490,-265Z" fill="#c0c3df" stroke="#c0c3df" stroke-width="1.51"/><path d="M1238,1314L893,1333L1581,1329Z" fill="#733e82" stroke="#733e82" stroke-width="1.51"/><path d="M1581,1329L893,1333L1884,1339Z" fill="#702d7a" stroke="#702d7a" stroke-width="1.51"/><path d="M1490,-265L1645,-255L1955,-253Z" fill="#bf94c4" stroke="#bf94c4" stroke-width="1.51"/><path d="M1645,-255L1819,-225L1955,-253Z" fill="#be8ebd" stroke="#be8ebd" stroke-width="1.51"/><path d="M2070,1131L1987,1136L2074,1341Z" fill="#6b0767" stroke="#6b0767" stroke-width="1.51"/><path d="M2032,-242L1989,-105L2101,-64Z" fill="#a67ea8" stroke="#a67ea8" stroke-width="1.51"/><path d="M1989,-105L1982,119L2101,-64Z" fill="#a07aa6" stroke="#a07aa6" stroke-width="1.51"/><path d="M1961,266L2041,412L2103,250Z" fill="#87699b" stroke="#87699b" stroke-width="1.51"/><path d="M2041,412L2051,506L2103,250Z" fill="#806295" stroke="#806295" stroke-width="1.51"/><path d="M1890,706L2053,893L2116,739Z" fill="#7a3c87" stroke="#7a3c87" stroke-width="1.51"/><path d="M2051,506L1990,590L2116,739Z" fill="#794d8c" stroke="#794d8c" stroke-width="1.51"/><path d="M2052,1035L2070,1131L2116,739Z" fill="#712478" stroke="#712478" stroke-width="1.51"/><path d="M2053,893L2052,1035L2116,739Z" fill="#732e7d" stroke="#732e7d" stroke-width="1.51"/><path d="M2103,250L2051,506L2116,739Z" fill="#79578e" stroke="#79578e" stroke-width="1.51"/><path d="M2070,1131L2074,1341L2116,739Z" fill="#6e1770" stroke="#6e1770" stroke-width="1.51"/><path d="M1982,119L2103,250L2122,102Z" fill="#8f6f9c" stroke="#8f6f9c" stroke-width="1.51"/><path d="M2101,-64L1982,119L2122,102Z" fill="#9774a0" stroke="#9774a0" stroke-width="1.51"/><path d="M2103,250L2116,739L2122,102Z" fill="#7d6192" stroke="#7d6192" stroke-width="1.51"/><path d="M1961,266L1949,363L2041,412Z" fill="#8a699e" stroke="#8a699e" stroke-width="1.51"/><path d="M1982,119L1961,266L2103,250Z" fill="#906fa0" stroke="#906fa0" stroke-width="1.51"/><path d="M1990,590L1890,706L2116,739Z" fill="#7d478d" stroke="#7d478d" stroke-width="1.51"/><path d="M1890,706L1904,882L2053,893Z" fill="#7f398a" stroke="#7f398a" stroke-width="1.51"/><path d="M1987,1136L1884,1339L2074,1341Z" fill="#670664" stroke="#670664" stroke-width="1.51"/><path d="M1938,1000L2052,1035L2053,893Z" fill="#77257d" stroke="#77257d" stroke-width="1.51"/><path d="M2052,1035L1987,1136L2070,1131Z" fill="#721472" stroke="#721472" stroke-width="1.51"/><path d="M1955,-253L1989,-105L2032,-242Z" fill="#ae83ad" stroke="#ae83ad" stroke-width="1.51"/><path d="M2041,412L1949,363L2051,506Z" fill="#836098" stroke="#836098" stroke-width="1.51"/><path d="M1949,363L1990,590L2051,506Z" fill="#825c97" stroke="#825c97" stroke-width="1.51"/><path d="M1938,1000L1987,1136L2052,1035Z" fill="#771c79" stroke="#771c79" stroke-width="1.51"/><path d="M1904,882L1938,1000L2053,893Z" fill="#7c2d84" stroke="#7c2d84" stroke-width="1.51"/><path d="M1821,-97L1982,119L1989,-105Z" fill="#aa7faf" stroke="#aa7faf" stroke-width="1.51"/><path d="M1821,-97L1773,63L1982,119Z" fill="#ad7fb3" stroke="#ad7fb3" stroke-width="1.51"/><path d="M1949,363L1808,392L1990,590Z" fill="#8b63a0" stroke="#8b63a0" stroke-width="1.51"/><path d="M1759,275L1961,266L1982,119Z" fill="#9b73aa" stroke="#9b73aa" stroke-width="1.51"/><path d="M1773,63L1759,275L1982,119Z" fill="#a47ab1" stroke="#a47ab1" stroke-width="1.51"/><path d="M1747,1265L1884,1339L1987,1136Z" fill="#740a70" stroke="#740a70" stroke-width="1.51"/><path d="M1784,1093L1747,1265L1987,1136Z" fill="#81127c" stroke="#81127c" stroke-width="1.51"/><path d="M1938,1000L1784,1093L1987,1136Z" fill="#7f1c7f" stroke="#7f1c7f" stroke-width="1.51"/><path d="M1955,-253L1819,-225L1989,-105Z" fill="#b586b4" stroke="#b586b4" stroke-width="1.51"/><path d="M1819,-225L1821,-97L1989,-105Z" fill="#b687b7" stroke="#b687b7" stroke-width="1.51"/><path d="M1738,485L1890,706L1990,590Z" fill="#8a569d" stroke="#8a569d" stroke-width="1.51"/><path d="M1808,392L1738,485L1990,590Z" fill="#8e62a4" stroke="#8e62a4" stroke-width="1.51"/><path d="M1738,485L1831,713L1890,706Z" fill="#8a549e" stroke="#8a549e" stroke-width="1.51"/><path d="M1890,706L1831,713L1904,882Z" fill="#874294" stroke="#874294" stroke-width="1.51"/><path d="M1808,392L1949,363L1961,266Z" fill="#916da5" stroke="#916da5" stroke-width="1.51"/><path d="M1759,275L1808,392L1961,266Z" fill="#9872ac" stroke="#9872ac" stroke-width="1.51"/><path d="M1831,713L1838,886L1904,882Z" fill="#873c92" stroke="#873c92" stroke-width="1.51"/><path d="M1783,1025L1784,1093L1938,1000Z" fill="#842487" stroke="#842487" stroke-width="1.51"/><path d="M1904,882L1838,886L1938,1000Z" fill="#83308b" stroke="#83308b" stroke-width="1.51"/><path d="M1838,886L1783,1025L1938,1000Z" fill="#852b8b" stroke="#852b8b" stroke-width="1.51"/><path d="M1747,1265L1581,1329L1884,1339Z" fill="#6f1770" stroke="#6f1770" stroke-width="1.51"/><path d="M1738,485L1656,540L1831,713Z" fill="#8b5fa5" stroke="#8b5fa5" stroke-width="1.51"/><path d="M1663,74L1759,275L1773,63Z" fill="#a581b7" stroke="#a581b7" stroke-width="1.51"/><path d="M1664,-36L1773,63L1821,-97Z" fill="#b188bb" stroke="#b188bb" stroke-width="1.51"/><path d="M1819,-225L1645,-255L1821,-97Z" fill="#bc8fbf" stroke="#bc8fbf" stroke-width="1.51"/><path d="M1656,540L1620,744L1831,713Z" fill="#8b58a3" stroke="#8b58a3" stroke-width="1.51"/><path d="M1689,1019L1783,1025L1838,886Z" fill="#86308f" stroke="#86308f" stroke-width="1.51"/><path d="M1680,792L1689,1019L1838,886Z" fill="#873c96" stroke="#873c96" stroke-width="1.51"/><path d="M1831,713L1680,792L1838,886Z" fill="#884498" stroke="#884498" stroke-width="1.51"/><path d="M1645,-255L1664,-36L1821,-97Z" fill="#b88fc0" stroke="#b88fc0" stroke-width="1.51"/><path d="M1620,744L1680,792L1831,713Z" fill="#8a4d9e" stroke="#8a4d9e" stroke-width="1.51"/><path d="M1637,1169L1747,1265L1784,1093Z" fill="#811e81" stroke="#811e81" stroke-width="1.51"/><path d="M1759,275L1647,385L1808,392Z" fill="#9675b0" stroke="#9675b0" stroke-width="1.51"/><path d="M1647,385L1738,485L1808,392Z" fill="#926fae" stroke="#926fae" stroke-width="1.51"/><path d="M1036,-248L1164,-214L1490,-265Z" fill="#bfb2d7" stroke="#bfb2d7" stroke-width="1.51"/><path d="M1663,74L1632,277L1759,275Z" fill="#a080b8" stroke="#a080b8" stroke-width="1.51"/><path d="M1664,-36L1663,74L1773,63Z" fill="#ad88bc" stroke="#ad88bc" stroke-width="1.51"/><path d="M1783,1025L1689,1019L1784,1093Z" fill="#852b8b" stroke="#852b8b" stroke-width="1.51"/><path d="M1689,1019L1637,1169L1784,1093Z" fill="#852889" stroke="#852889" stroke-width="1.51"/><path d="M1632,277L1647,385L1759,275Z" fill="#987ab5" stroke="#987ab5" stroke-width="1.51"/><path d="M1637,1169L1581,1329L1747,1265Z" fill="#77207b" stroke="#77207b" stroke-width="1.51"/><path d="M1680,792L1475,861L1689,1019Z" fill="#89449d" stroke="#89449d" stroke-width="1.51"/><path d="M1647,385L1656,540L1738,485Z" fill="#906dae" stroke="#906dae" stroke-width="1.51"/><path d="M1285,1289L1238,1314L1581,1329Z" fill="#73357f" stroke="#73357f" stroke-width="1.51"/><path d="M1541,1266L1581,1329L1637,1169Z" fill="#78267f" stroke="#78267f" stroke-width="1.51"/><path d="M1490,-265L1462,-73L1645,-255Z" fill="#bd9ccc" stroke="#bd9ccc" stroke-width="1.51"/><path d="M1515,639L1620,744L1656,540Z" fill="#8b60aa" stroke="#8b60aa" stroke-width="1.51"/><path d="M1483,266L1632,277L1663,74Z" fill="#a085bd" stroke="#a085bd" stroke-width="1.51"/><path d="M1645,-255L1462,-73L1664,-36Z" fill="#b896c8" stroke="#b896c8" stroke-width="1.51"/><path d="M1620,744L1475,861L1680,792Z" fill="#8950a2" stroke="#8950a2" stroke-width="1.51"/><path d="M1468,1137L1637,1169L1689,1019Z" fill="#852f8e" stroke="#852f8e" stroke-width="1.51"/><path d="M1457,982L1468,1137L1689,1019Z" fill="#873996" stroke="#873996" stroke-width="1.51"/><path d="M1475,861L1457,982L1689,1019Z" fill="#88439e" stroke="#88439e" stroke-width="1.51"/><path d="M1647,385L1501,551L1656,540Z" fill="#8f70b1" stroke="#8f70b1" stroke-width="1.51"/><path d="M1501,551L1515,639L1656,540Z" fill="#8c69af" stroke="#8c69af" stroke-width="1.51"/><path d="M1439,35L1483,266L1663,74Z" fill="#a78dc2" stroke="#a78dc2" stroke-width="1.51"/><path d="M1439,35L1663,74L1664,-36Z" fill="#af8ec3" stroke="#af8ec3" stroke-width="1.51"/><path d="M1462,-73L1439,35L1664,-36Z" fill="#b296c8" stroke="#b296c8" stroke-width="1.51"/><path d="M1437,379L1501,551L1647,385Z" fill="#9279b7" stroke="#9279b7" stroke-width="1.51"/><path d="M1632,277L1483,266L1647,385Z" fill="#9980ba" stroke="#9980ba" stroke-width="1.51"/><path d="M1483,266L1437,379L1647,385Z" fill="#9682bc" stroke="#9682bc" stroke-width="1.51"/><path d="M1468,1137L1541,1266L1637,1169Z" fill="#812c89" stroke="#812c89" stroke-width="1.51"/><path d="M1515,639L1475,861L1620,744Z" fill="#8a59a8" stroke="#8a59a8" stroke-width="1.51"/><path d="M296,1283L82,1332L762,1317Z" fill="#8f6f9b" stroke="#8f6f9b" stroke-width="1.51"/><path d="M1385,746L1475,861L1515,639Z" fill="#8b5eaa" stroke="#8b5eaa" stroke-width="1.51"/><path d="M1541,1266L1285,1289L1581,1329Z" fill="#742d7e" stroke="#742d7e" stroke-width="1.51"/><path d="M1439,35L1337,67L1483,266Z" fill="#a794c6" stroke="#a794c6" stroke-width="1.51"/><path d="M1164,-214L1337,-189L1490,-265Z" fill="#beabd3" stroke="#beabd3" stroke-width="1.51"/><path d="M1337,-189L1462,-73L1490,-265Z" fill="#bca2cf" stroke="#bca2cf" stroke-width="1.51"/><path d="M1468,1137L1388,1146L1541,1266Z" fill="#83348c" stroke="#83348c" stroke-width="1.51"/><path d="M1388,1146L1285,1289L1541,1266Z" fill="#7d3688" stroke="#7d3688" stroke-width="1.51"/><path d="M1337,67L1302,232L1483,266Z" fill="#a294c5" stroke="#a294c5" stroke-width="1.51"/><path d="M1437,379L1350,521L1501,551Z" fill="#8f7bb8" stroke="#8f7bb8" stroke-width="1.51"/><path d="M1501,551L1350,521L1515,639Z" fill="#8d71b3" stroke="#8d71b3" stroke-width="1.51"/><path d="M1350,521L1385,746L1515,639Z" fill="#8c6cb1" stroke="#8c6cb1" stroke-width="1.51"/><path d="M1457,982L1388,1146L1468,1137Z" fill="#883e96" stroke="#883e96" stroke-width="1.51"/><path d="M1379,959L1457,982L1475,861Z" fill="#8a4ca2" stroke="#8a4ca2" stroke-width="1.51"/><path d="M1379,959L1388,1146L1457,982Z" fill="#89459c" stroke="#89459c" stroke-width="1.51"/><path d="M1302,232L1437,379L1483,266Z" fill="#9a8cc1" stroke="#9a8cc1" stroke-width="1.51"/><path d="M1334,-21L1439,35L1462,-73Z" fill="#b29dcb" stroke="#b29dcb" stroke-width="1.51"/><path d="M1385,746L1307,813L1475,861Z" fill="#8b5da9" stroke="#8b5da9" stroke-width="1.51"/><path d="M1307,813L1379,959L1475,861Z" fill="#8b56a6" stroke="#8b56a6" stroke-width="1.51"/><path d="M1337,-189L1334,-21L1462,-73Z" fill="#b8a3cf" stroke="#b8a3cf" stroke-width="1.51"/><path d="M1350,521L1236,589L1385,746Z" fill="#8d75b5" stroke="#8d75b5" stroke-width="1.51"/><path d="M1302,395L1350,521L1437,379Z" fill="#9284bd" stroke="#9284bd" stroke-width="1.51"/><path d="M1302,232L1302,395L1437,379Z" fill="#978ec2" stroke="#978ec2" stroke-width="1.51"/><path d="M1334,-21L1337,67L1439,35Z" fill="#ae9dcb" stroke="#ae9dcb" stroke-width="1.51"/><path d="M1307,813L1199,881L1379,959Z" fill="#8b5ba9" stroke="#8b5ba9" stroke-width="1.51"/><path d="M1151,960L1175,1178L1379,959Z" fill="#8a52a1" stroke="#8a52a1" stroke-width="1.51"/><path d="M1236,589L1307,813L1385,746Z" fill="#8c6bb1" stroke="#8c6bb1" stroke-width="1.51"/><path d="M1379,959L1175,1178L1388,1146Z" fill="#894799" stroke="#894799" stroke-width="1.51"/><path d="M1175,1178L1285,1289L1388,1146Z" fill="#82418f" stroke="#82418f" stroke-width="1.51"/><path d="M1199,881L1151,960L1379,959Z" fill="#8b5aa8" stroke="#8b5aa8" stroke-width="1.51"/><path d="M1236,589L1143,659L1307,813Z" fill="#8d74b5" stroke="#8d74b5" stroke-width="1.51"/><path d="M1210,-19L1334,-21L1337,-189Z" fill="#b7a8d1" stroke="#b7a8d1" stroke-width="1.51"/><path d="M1164,-214L1210,-19L1337,-189Z" fill="#baaed5" stroke="#baaed5" stroke-width="1.51"/><path d="M1219,216L1302,232L1337,67Z" fill="#a39ac9" stroke="#a39ac9" stroke-width="1.51"/><path d="M1155,130L1219,216L1337,67Z" fill="#a59fcc" stroke="#a59fcc" stroke-width="1.51"/><path d="M1302,395L1236,589L1350,521Z" fill="#8f82bc" stroke="#8f82bc" stroke-width="1.51"/><path d="M1140,403L1236,589L1302,395Z" fill="#908ac0" stroke="#908ac0" stroke-width="1.51"/><path d="M1302,232L1219,216L1302,395Z" fill="#9b95c6" stroke="#9b95c6" stroke-width="1.51"/><path d="M1334,-21L1210,-19L1337,67Z" fill="#b0a3ce" stroke="#b0a3ce" stroke-width="1.51"/><path d="M1210,-19L1155,130L1337,67Z" fill="#aca4cf" stroke="#aca4cf" stroke-width="1.51"/><path d="M1041,1252L893,1333L1238,1314Z" fill="#784d8b" stroke="#784d8b" stroke-width="1.51"/><path d="M1219,216L1140,403L1302,395Z" fill="#9696c7" stroke="#9696c7" stroke-width="1.51"/><path d="M1143,659L1199,881L1307,813Z" fill="#8c6bb0" stroke="#8c6bb0" stroke-width="1.51"/><path d="M1175,1178L1238,1314L1285,1289Z" fill="#7b428a" stroke="#7b428a" stroke-width="1.51"/><path d="M1151,960L1044,1149L1175,1178Z" fill="#8b55a0" stroke="#8b55a0" stroke-width="1.51"/><path d="M1143,659L1065,702L1199,881Z" fill="#8d74b5" stroke="#8d74b5" stroke-width="1.51"/><path d="M1065,702L1051,843L1199,881Z" fill="#8c70b3" stroke="#8c70b3" stroke-width="1.51"/><path d="M1164,-214L1057,-88L1210,-19Z" fill="#b8b4d7" stroke="#b8b4d7" stroke-width="1.51"/><path d="M1064,286L1140,403L1219,216Z" fill="#999eca" stroke="#999eca" stroke-width="1.51"/><path d="M1028,547L1143,659L1236,589Z" fill="#8d84bd" stroke="#8d84bd" stroke-width="1.51"/><path d="M1140,403L1028,547L1236,589Z" fill="#8e8cc1" stroke="#8e8cc1" stroke-width="1.51"/><path d="M1175,1178L1041,1252L1238,1314Z" fill="#7e498e" stroke="#7e498e" stroke-width="1.51"/><path d="M1008,1028L1044,1149L1151,960Z" fill="#8b5ea6" stroke="#8b5ea6" stroke-width="1.51"/><path d="M1035,38L1155,130L1210,-19Z" fill="#acacd2" stroke="#acacd2" stroke-width="1.51"/><path d="M1155,130L1064,286L1219,216Z" fill="#a0a3cd" stroke="#a0a3cd" stroke-width="1.51"/><path d="M1057,-88L1035,38L1210,-19Z" fill="#b2b2d6" stroke="#b2b2d6" stroke-width="1.51"/><path d="M1051,843L1151,960L1199,881Z" fill="#8c66ae" stroke="#8c66ae" stroke-width="1.51"/><path d="M1006,440L1028,547L1140,403Z" fill="#9096c6" stroke="#9096c6" stroke-width="1.51"/><path d="M1044,1149L1041,1252L1175,1178Z" fill="#865198" stroke="#865198" stroke-width="1.51"/><path d="M1036,-248L1057,-88L1164,-214Z" fill="#bcbbdb" stroke="#bcbbdb" stroke-width="1.51"/><path d="M1035,38L1064,286L1155,130Z" fill="#a4a9d1" stroke="#a4a9d1" stroke-width="1.51"/><path d="M1028,547L1065,702L1143,659Z" fill="#8d84bd" stroke="#8d84bd" stroke-width="1.51"/><path d="M1051,843L1008,1028L1151,960Z" fill="#8c66ae" stroke="#8c66ae" stroke-width="1.51"/><path d="M1035,38L929,76L1064,286Z" fill="#a5b0d4" stroke="#a5b0d4" stroke-width="1.51"/><path d="M1064,286L1006,440L1140,403Z" fill="#949dca" stroke="#949dca" stroke-width="1.51"/><path d="M871,223L845,418L1006,440Z" fill="#96aad0" stroke="#96aad0" stroke-width="1.51"/><path d="M834,888L1008,1028L1051,843Z" fill="#8d70b3" stroke="#8d70b3" stroke-width="1.51"/><path d="M939,-4L1035,38L1057,-88Z" fill="#b1b9d9" stroke="#b1b9d9" stroke-width="1.51"/><path d="M1036,-248L843,-236L1057,-88Z" fill="#bcc3df" stroke="#bcc3df" stroke-width="1.51"/><path d="M843,-236L939,-4L1057,-88Z" fill="#b8c2de" stroke="#b8c2de" stroke-width="1.51"/><path d="M871,223L1006,440L1064,286Z" fill="#97a8d0" stroke="#97a8d0" stroke-width="1.51"/><path d="M929,76L871,223L1064,286Z" fill="#a0b1d4" stroke="#a0b1d4" stroke-width="1.51"/><path d="M903,688L1051,843L1065,702Z" fill="#8d7dba" stroke="#8d7dba" stroke-width="1.51"/><path d="M1028,547L903,688L1065,702Z" fill="#8d89bf" stroke="#8d89bf" stroke-width="1.51"/><path d="M861,1186L1041,1252L1044,1149Z" fill="#86599b" stroke="#86599b" stroke-width="1.51"/><path d="M1008,1028L878,1041L1044,1149Z" fill="#8c63a7" stroke="#8c63a7" stroke-width="1.51"/><path d="M903,688L834,888L1051,843Z" fill="#8e7db9" stroke="#8e7db9" stroke-width="1.51"/><path d="M834,888L878,1041L1008,1028Z" fill="#8e6eb1" stroke="#8e6eb1" stroke-width="1.51"/><path d="M878,1041L861,1186L1044,1149Z" fill="#8d61a4" stroke="#8d61a4" stroke-width="1.51"/><path d="M861,1186L893,1333L1041,1252Z" fill="#805995" stroke="#805995" stroke-width="1.51"/><path d="M939,-4L929,76L1035,38Z" fill="#adb9d8" stroke="#adb9d8" stroke-width="1.51"/><path d="M388,1256L296,1283L762,1317Z" fill="#8e6e9d" stroke="#8e6e9d" stroke-width="1.51"/><path d="M1006,440L829,546L1028,547Z" fill="#8d99c7" stroke="#8d99c7" stroke-width="1.51"/><path d="M829,546L903,688L1028,547Z" fill="#8e93c5" stroke="#8e93c5" stroke-width="1.51"/><path d="M845,418L829,546L1006,440Z" fill="#91a0cb" stroke="#91a0cb" stroke-width="1.51"/><path d="M767,-45L929,76L939,-4Z" fill="#b2c0dc" stroke="#b2c0dc" stroke-width="1.51"/><path d="M843,-236L767,-45L939,-4Z" fill="#bbc8e1" stroke="#bbc8e1" stroke-width="1.51"/><path d="M754,390L845,418L871,223Z" fill="#99b0d4" stroke="#99b0d4" stroke-width="1.51"/><path d="M711,720L834,888L903,688Z" fill="#9288bf" stroke="#9288bf" stroke-width="1.51"/><path d="M719,44L871,223L929,76Z" fill="#aabddb" stroke="#aabddb" stroke-width="1.51"/><path d="M767,-45L719,44L929,76Z" fill="#b2c4de" stroke="#b2c4de" stroke-width="1.51"/><path d="M711,720L724,861L834,888Z" fill="#9386bf" stroke="#9386bf" stroke-width="1.51"/><path d="M768,-233L767,-45L843,-236Z" fill="#c0cee4" stroke="#c0cee4" stroke-width="1.51"/><path d="M719,44L686,189L871,223Z" fill="#aabfdc" stroke="#aabfdc" stroke-width="1.51"/><path d="M773,1104L861,1186L878,1041Z" fill="#9068a8" stroke="#9068a8" stroke-width="1.51"/><path d="M861,1186L762,1317L893,1333Z" fill="#7f5c95" stroke="#7f5c95" stroke-width="1.51"/><path d="M829,546L742,574L903,688Z" fill="#9198c7" stroke="#9198c7" stroke-width="1.51"/><path d="M742,574L711,720L903,688Z" fill="#9394c6" stroke="#9394c6" stroke-width="1.51"/><path d="M834,888L688,988L878,1041Z" fill="#9276b5" stroke="#9276b5" stroke-width="1.51"/><path d="M686,189L754,390L871,223Z" fill="#a1b8d8" stroke="#a1b8d8" stroke-width="1.51"/><path d="M688,988L773,1104L878,1041Z" fill="#9271b0" stroke="#9271b0" stroke-width="1.51"/><path d="M754,390L829,546L845,418Z" fill="#95a7d0" stroke="#95a7d0" stroke-width="1.51"/><path d="M773,1104L762,1317L861,1186Z" fill="#8b64a0" stroke="#8b64a0" stroke-width="1.51"/><path d="M636,1240L388,1256L762,1317Z" fill="#8a6a9d" stroke="#8a6a9d" stroke-width="1.51"/><path d="M636,1240L762,1317L773,1104Z" fill="#8b68a0" stroke="#8b68a0" stroke-width="1.51"/><path d="M754,390L742,574L829,546Z" fill="#93a5ce" stroke="#93a5ce" stroke-width="1.51"/><path d="M724,861L688,988L834,888Z" fill="#947fba" stroke="#947fba" stroke-width="1.51"/><path d="M540,255L617,428L686,189Z" fill="#a4c0dd" stroke="#a4c0dd" stroke-width="1.51"/><path d="M711,720L633,794L724,861Z" fill="#958dc2" stroke="#958dc2" stroke-width="1.51"/><path d="M617,428L742,574L754,390Z" fill="#97add2" stroke="#97add2" stroke-width="1.51"/><path d="M686,189L617,428L754,390Z" fill="#9ebad9" stroke="#9ebad9" stroke-width="1.51"/><path d="M602,-87L767,-45L768,-233Z" fill="#c0d2e7" stroke="#c0d2e7" stroke-width="1.51"/><path d="M688,988L585,1156L773,1104Z" fill="#9674b0" stroke="#9674b0" stroke-width="1.51"/><path d="M585,1156L636,1240L773,1104Z" fill="#956ea9" stroke="#956ea9" stroke-width="1.51"/><path d="M530,-249L602,-87L768,-233Z" fill="#c7d9ea" stroke="#c7d9ea" stroke-width="1.51"/><path d="M602,-87L719,44L767,-45Z" fill="#bacee5" stroke="#bacee5" stroke-width="1.51"/><path d="M617,428L569,511L742,574Z" fill="#98acd2" stroke="#98acd2" stroke-width="1.51"/><path d="M587,675L711,720L742,574Z" fill="#969bc9" stroke="#969bc9" stroke-width="1.51"/><path d="M599,80L686,189L719,44Z" fill="#b1c8e0" stroke="#b1c8e0" stroke-width="1.51"/><path d="M609,968L688,988L724,861Z" fill="#9680bb" stroke="#9680bb" stroke-width="1.51"/><path d="M569,511L587,675L742,574Z" fill="#97a5ce" stroke="#97a5ce" stroke-width="1.51"/><path d="M609,968L585,1156L688,988Z" fill="#997ab5" stroke="#997ab5" stroke-width="1.51"/><path d="M602,-87L599,80L719,44Z" fill="#b9cfe5" stroke="#b9cfe5" stroke-width="1.51"/><path d="M633,794L609,968L724,861Z" fill="#9788bf" stroke="#9788bf" stroke-width="1.51"/><path d="M587,675L633,794L711,720Z" fill="#9796c7" stroke="#9796c7" stroke-width="1.51"/><path d="M599,80L540,255L686,189Z" fill="#aec7e0" stroke="#aec7e0" stroke-width="1.51"/><path d="M461,186L540,255L599,80Z" fill="#b2cae1" stroke="#b2cae1" stroke-width="1.51"/><path d="M474,-64L599,80L602,-87Z" fill="#c0d4e7" stroke="#c0d4e7" stroke-width="1.51"/><path d="M488,1152L585,1156L609,968Z" fill="#9c79b2" stroke="#9c79b2" stroke-width="1.51"/><path d="M396,890L609,968L633,794Z" fill="#9d8bc1" stroke="#9d8bc1" stroke-width="1.51"/><path d="M488,734L396,890L633,794Z" fill="#9f93c5" stroke="#9f93c5" stroke-width="1.51"/><path d="M587,675L488,734L633,794Z" fill="#9b98c8" stroke="#9b98c8" stroke-width="1.51"/><path d="M585,1156L488,1152L636,1240Z" fill="#9771a9" stroke="#9771a9" stroke-width="1.51"/><path d="M488,1152L388,1256L636,1240Z" fill="#9671a6" stroke="#9671a6" stroke-width="1.51"/><path d="M540,255L426,420L617,428Z" fill="#a4bedb" stroke="#a4bedb" stroke-width="1.51"/><path d="M569,511L424,566L587,675Z" fill="#9da9d0" stroke="#9da9d0" stroke-width="1.51"/><path d="M471,91L461,186L599,80Z" fill="#b8cde4" stroke="#b8cde4" stroke-width="1.51"/><path d="M474,-64L471,91L599,80Z" fill="#bed2e6" stroke="#bed2e6" stroke-width="1.51"/><path d="M530,-249L474,-64L602,-87Z" fill="#c9daeb" stroke="#c9daeb" stroke-width="1.51"/><path d="M389,1009L488,1152L609,968Z" fill="#9f7fb7" stroke="#9f7fb7" stroke-width="1.51"/><path d="M426,420L569,511L617,428Z" fill="#a0b5d6" stroke="#a0b5d6" stroke-width="1.51"/><path d="M396,890L389,1009L609,968Z" fill="#a187bf" stroke="#a187bf" stroke-width="1.51"/><path d="M424,566L488,734L587,675Z" fill="#9fa3cd" stroke="#9fa3cd" stroke-width="1.51"/><path d="M392,-237L474,-64L530,-249Z" fill="#d0dfed" stroke="#d0dfed" stroke-width="1.51"/><path d="M426,420L424,566L569,511Z" fill="#a2b3d6" stroke="#a2b3d6" stroke-width="1.51"/><path d="M-207,-205L39,-177L174,-207Z" fill="#e9f2f8" stroke="#e9f2f8" stroke-width="1.51"/><path d="M461,186L338,277L540,255Z" fill="#b2c9e1" stroke="#b2c9e1" stroke-width="1.51"/><path d="M338,277L426,420L540,255Z" fill="#acc5df" stroke="#acc5df" stroke-width="1.51"/><path d="M392,-237L271,-82L474,-64Z" fill="#d1e1ed" stroke="#d1e1ed" stroke-width="1.51"/><path d="M297,108L471,91L474,-64Z" fill="#c3d6e8" stroke="#c3d6e8" stroke-width="1.51"/><path d="M271,-82L297,108L474,-64Z" fill="#cbdceb" stroke="#cbdceb" stroke-width="1.51"/><path d="M424,566L321,732L488,734Z" fill="#a4a4ce" stroke="#a4a4ce" stroke-width="1.51"/><path d="M321,732L396,890L488,734Z" fill="#a499c8" stroke="#a499c8" stroke-width="1.51"/><path d="M389,1009L273,1171L488,1152Z" fill="#a47db4" stroke="#a47db4" stroke-width="1.51"/><path d="M273,1171L388,1256L488,1152Z" fill="#9f77ab" stroke="#9f77ab" stroke-width="1.51"/><path d="M174,-207L242,-192L392,-237Z" fill="#dce8f2" stroke="#dce8f2" stroke-width="1.51"/><path d="M297,108L461,186L471,91Z" fill="#bdd1e5" stroke="#bdd1e5" stroke-width="1.51"/><path d="M284,500L424,566L426,420Z" fill="#a7b8d8" stroke="#a7b8d8" stroke-width="1.51"/><path d="M297,108L338,277L461,186Z" fill="#bacfe4" stroke="#bacfe4" stroke-width="1.51"/><path d="M282,1014L273,1171L389,1009Z" fill="#a883b9" stroke="#a883b9" stroke-width="1.51"/><path d="M242,-192L271,-82L392,-237Z" fill="#d8e5f0" stroke="#d8e5f0" stroke-width="1.51"/><path d="M321,732L266,867L396,890Z" fill="#a998c8" stroke="#a998c8" stroke-width="1.51"/><path d="M284,500L321,732L424,566Z" fill="#a7aed3" stroke="#a7aed3" stroke-width="1.51"/><path d="M338,277L257,347L426,420Z" fill="#afc7e0" stroke="#afc7e0" stroke-width="1.51"/><path d="M257,347L284,500L426,420Z" fill="#adc1dc" stroke="#adc1dc" stroke-width="1.51"/><path d="M273,1171L296,1283L388,1256Z" fill="#9d76a7" stroke="#9d76a7" stroke-width="1.51"/><path d="M282,1014L389,1009L396,890Z" fill="#a789c0" stroke="#a789c0" stroke-width="1.51"/><path d="M266,867L282,1014L396,890Z" fill="#a98fc4" stroke="#a98fc4" stroke-width="1.51"/><path d="M271,-82L166,66L297,108Z" fill="#cddeec" stroke="#cddeec" stroke-width="1.51"/><path d="M284,500L163,544L321,732Z" fill="#acb3d6" stroke="#acb3d6" stroke-width="1.51"/><path d="M163,544L168,730L321,732Z" fill="#aeacd3" stroke="#aeacd3" stroke-width="1.51"/><path d="M297,108L109,212L338,277Z" fill="#c0d3e7" stroke="#c0d3e7" stroke-width="1.51"/><path d="M109,212L257,347L338,277Z" fill="#bacfe4" stroke="#bacfe4" stroke-width="1.51"/><path d="M150,1137L273,1171L282,1014Z" fill="#ac82b7" stroke="#ac82b7" stroke-width="1.51"/><path d="M168,730L266,867L321,732Z" fill="#ada0cc" stroke="#ada0cc" stroke-width="1.51"/><path d="M109,212L152,341L257,347Z" fill="#bcd1e6" stroke="#bcd1e6" stroke-width="1.51"/><path d="M168,730L158,849L266,867Z" fill="#af9ecc" stroke="#af9ecc" stroke-width="1.51"/><path d="M266,867L125,961L282,1014Z" fill="#ae90c4" stroke="#ae90c4" stroke-width="1.51"/><path d="M257,347L152,341L284,500Z" fill="#b3c7e0" stroke="#b3c7e0" stroke-width="1.51"/><path d="M152,341L163,544L284,500Z" fill="#b2c2de" stroke="#b2c2de" stroke-width="1.51"/><path d="M273,1171L150,1137L296,1283Z" fill="#a67cae" stroke="#a67cae" stroke-width="1.51"/><path d="M150,1137L82,1332L296,1283Z" fill="#a17aa8" stroke="#a17aa8" stroke-width="1.51"/><path d="M166,66L109,212L297,108Z" fill="#c9daea" stroke="#c9daea" stroke-width="1.51"/><path d="M158,849L125,961L266,867Z" fill="#b097c8" stroke="#b097c8" stroke-width="1.51"/><path d="M95,-77L166,66L271,-82Z" fill="#d6e4f0" stroke="#d6e4f0" stroke-width="1.51"/><path d="M125,961L150,1137L282,1014Z" fill="#af8abe" stroke="#af8abe" stroke-width="1.51"/><path d="M242,-192L174,-207L271,-82Z" fill="#dbe8f2" stroke="#dbe8f2" stroke-width="1.51"/><path d="M174,-207L95,-77L271,-82Z" fill="#dce8f2" stroke="#dce8f2" stroke-width="1.51"/><path d="M-55,1183L82,1332L150,1137Z" fill="#ac81af" stroke="#ac81af" stroke-width="1.51"/><path d="M125,961L-40,1041L150,1137Z" fill="#b58dc0" stroke="#b58dc0" stroke-width="1.51"/><path d="M152,341L-71,405L163,544Z" fill="#bac9e2" stroke="#bac9e2" stroke-width="1.51"/><path d="M-71,405L-29,581L163,544Z" fill="#b9c4df" stroke="#b9c4df" stroke-width="1.51"/><path d="M-29,581L-12,668L163,544Z" fill="#b7bada" stroke="#b7bada" stroke-width="1.51"/><path d="M36,76L109,212L166,66Z" fill="#cedeec" stroke="#cedeec" stroke-width="1.51"/><path d="M95,-77L36,76L166,66Z" fill="#d6e4ef" stroke="#d6e4ef" stroke-width="1.51"/><path d="M163,544L-12,668L168,730Z" fill="#b4b3d6" stroke="#b4b3d6" stroke-width="1.51"/><path d="M-12,668L158,849L168,730Z" fill="#b4a8d1" stroke="#b4a8d1" stroke-width="1.51"/><path d="M39,-177L95,-77L174,-207Z" fill="#e2edf5" stroke="#e2edf5" stroke-width="1.51"/><path d="M-12,668L-54,883L158,849Z" fill="#b7a6d0" stroke="#b7a6d0" stroke-width="1.51"/><path d="M-54,883L125,961L158,849Z" fill="#b59bca" stroke="#b59bca" stroke-width="1.51"/><path d="M109,212L-19,205L152,341Z" fill="#c5d7e9" stroke="#c5d7e9" stroke-width="1.51"/><path d="M-19,205L-71,405L152,341Z" fill="#c2d6e8" stroke="#c2d6e8" stroke-width="1.51"/><path d="M-40,1041L-55,1183L150,1137Z" fill="#b789bb" stroke="#b789bb" stroke-width="1.51"/><path d="M-55,1183L-11,1341L82,1332Z" fill="#a57ea7" stroke="#a57ea7" stroke-width="1.51"/><path d="M-6,-54L36,76L95,-77Z" fill="#dbe9f2" stroke="#dbe9f2" stroke-width="1.51"/><path d="M36,76L-19,205L109,212Z" fill="#cddeec" stroke="#cddeec" stroke-width="1.51"/><path d="M-54,883L-40,1041L125,961Z" fill="#b897c8" stroke="#b897c8" stroke-width="1.51"/><path d="M39,-177L-6,-54L95,-77Z" fill="#e2edf5" stroke="#e2edf5" stroke-width="1.51"/><path d="M-124,858L-54,883L-12,668Z" fill="#bba8d1" stroke="#bba8d1" stroke-width="1.51"/><path d="M-6,-54L-183,42L36,76Z" fill="#dde9f2" stroke="#dde9f2" stroke-width="1.51"/><path d="M-183,42L-19,205L36,76Z" fill="#d6e3ef" stroke="#d6e3ef" stroke-width="1.51"/><path d="M-157,-89L-6,-54L39,-177Z" fill="#e6eff6" stroke="#e6eff6" stroke-width="1.51"/><path d="M-207,-205L-157,-89L39,-177Z" fill="#ebf3f8" stroke="#ebf3f8" stroke-width="1.51"/><path d="M-116,394L-71,405L-19,205Z" fill="#c4d7e9" stroke="#c4d7e9" stroke-width="1.51"/><path d="M-54,883L-165,962L-40,1041Z" fill="#bc99c9" stroke="#bc99c9" stroke-width="1.51"/><path d="M-71,405L-159,527L-29,581Z" fill="#bdc7e0" stroke="#bdc7e0" stroke-width="1.51"/><path d="M-176,217L-116,394L-19,205Z" fill="#cbdceb" stroke="#cbdceb" stroke-width="1.51"/><path d="M-183,42L-176,217L-19,205Z" fill="#d5e3ef" stroke="#d5e3ef" stroke-width="1.51"/><path d="M-203,733L-124,858L-12,668Z" fill="#bdaed4" stroke="#bdaed4" stroke-width="1.51"/><path d="M-55,1183L-196,1295L-11,1341Z" fill="#aa81a9" stroke="#aa81a9" stroke-width="1.51"/><path d="M-157,-89L-183,42L-6,-54Z" fill="#e3edf5" stroke="#e3edf5" stroke-width="1.51"/><path d="M-29,581L-203,733L-12,668Z" fill="#bcb7d9" stroke="#bcb7d9" stroke-width="1.51"/><path d="M-178,1170L-55,1183L-40,1041Z" fill="#ba8bbb" stroke="#ba8bbb" stroke-width="1.51"/><path d="M-159,527L-203,733L-29,581Z" fill="#bebddc" stroke="#bebddc" stroke-width="1.51"/><path d="M-116,394L-159,527L-71,405Z" fill="#c1cee4" stroke="#c1cee4" stroke-width="1.51"/><path d="M-178,1170L-196,1295L-55,1183Z" fill="#b486b2" stroke="#b486b2" stroke-width="1.51"/><path d="M-165,962L-178,1170L-40,1041Z" fill="#bc92c2" stroke="#bc92c2" stroke-width="1.51"/><path d="M-124,858L-165,962L-54,883Z" fill="#bd9fcd" stroke="#bd9fcd" stroke-width="1.51"/><path d="M-176,217L-159,527L-116,394Z" fill="#c5d5e8" stroke="#c5d5e8" stroke-width="1.51"/><path d="M-203,733L-165,962L-124,858Z" fill="#bfa5d1" stroke="#bfa5d1" stroke-width="1.51"/><path d="M-176,217L-203,733L-159,527Z" fill="#c1cbe3" stroke="#c1cbe3" stroke-width="1.51"/><path d="M-207,-205L-183,42L-157,-89Z" fill="#eaf2f7" stroke="#eaf2f7" stroke-width="1.51"/><path d="M-203,733L-178,1170L-165,962Z" fill="#bf9ccc" stroke="#bf9ccc" stroke-width="1.51"/><path d="M-203,733L-196,1295L-178,1170Z" fill="#bf93c3" stroke="#bf93c3" stroke-width="1.51"/><path d="M-183,42L-207,-205L-176,217Z" fill="#e2ecf4" stroke="#e2ecf4" stroke-width="1.51"/><path d="M-207,-205L-203,733L-176,217Z" fill="#d0dfed" stroke="#d0dfed" stroke-width="1.51"/></svg>