<?xml version="1.0" encoding="utf-8"?>
<!-- Generator: Adobe Illustrator 16.0.0, SVG Export Plug-In . SVG Version: 6.00 Build 0)  -->
<!DOCTYPE svg PUBLIC "-//W3C//DTD SVG 1.1//EN" "http://www.w3.org/Graphics/SVG/1.1/DTD/svg11.dtd">
<svg version="1.1" id="Слой_1" xmlns="http://www.w3.org/2000/svg" xmlns:xlink="http://www.w3.org/1999/xlink" x="0px" y="0px"
	 width="198.43px" height="73.2px" viewBox="0 0 198.43 73.2" enable-background="new 0 0 198.43 73.2" xml:space="preserve">
<g>
	<g>
		<rect x="125.227" y="29.28" fill="#00ACEC" width="14.643" height="14.64"/>
		<rect x="154.508" y="14.641" fill="#00ACEC" width="14.643" height="14.64"/>
		<rect x="154.508" y="43.92" fill="#00ACEC" width="14.643" height="14.641"/>
		<rect x="125.227" y="58.561" fill="#00ACEC" width="14.643" height="14.639"/>
		<rect x="125.227" y="0.001" fill="#00ACEC" width="14.643" height="14.64"/>
		<rect x="183.787" y="29.28" fill="#00ACEC" width="14.641" height="14.64"/>
	</g>
	<g>
		<path fill="#F0F0F0" d="M12.282,72.625h-1.708L0.002,50.691h2.962l8.464,17.582l8.464-17.582h3.02L12.282,72.625z"/>
		<path fill="#F0F0F0" d="M20.588,72.625l10.746-21.934h2.265l10.868,21.934h-2.962l-2.979-5.901H26.406l-2.901,5.901H20.588z
			 M27.656,64.161h9.657l-4.846-9.715L27.656,64.161z"/>
		<path fill="#F0F0F0" d="M47.805,72.625V50.691h2.723v19.409H64.85v2.524H47.805z"/>
		<path fill="#F0F0F0" d="M70.294,50.691v14.204c0,2.277,0.427,3.804,1.282,4.579c0.854,0.776,2.533,1.162,5.035,1.162
			c2.505,0,4.18-0.386,5.027-1.162c0.849-0.775,1.271-2.302,1.271-4.579V50.691h2.744v14.939c0,2.703-0.705,4.639-2.107,5.812
			c-1.406,1.172-3.717,1.757-6.936,1.757s-5.529-0.585-6.932-1.757c-1.406-1.173-2.107-3.108-2.107-5.812V50.691H70.294z"/>
		<path fill="#F0F0F0" d="M91.71,72.625V50.691h17.245v2.524H94.434v6.437h8.781v2.521h-8.781v7.928h15.416v2.524H91.71z"/>
	</g>
	<g>
		<path fill="#F0F0F0" d="M0.002,22.054V0.12h12.577c2.133,0,3.812,0.53,5.035,1.59c1.225,1.059,1.839,2.51,1.839,4.351
			c0,1.908-0.593,3.45-1.78,4.629c-1.185,1.179-2.764,1.767-4.736,1.767H2.726v9.598H0.002z M2.726,9.894h9.673
			c1.378,0,2.421-0.305,3.132-0.914c0.706-0.609,1.063-1.502,1.063-2.681c0-1.153-0.357-2.05-1.063-2.693
			c-0.711-0.643-1.707-0.962-2.99-0.962H2.726V9.894z"/>
		<path fill="#F0F0F0" d="M27.227,22.054V0.001h2.762v22.053H27.227z"/>
		<path fill="#F0F0F0" d="M37.761,22.054l8.938-11.027L37.878,0.12h3.34l7.194,8.782l7.17-8.782h3.299l-8.842,10.789l9.082,11.146
			h-3.5l-7.291-9.04l-7.371,9.04H37.761z"/>
		<path fill="#F0F0F0" d="M66.893,22.054V0.12h17.244v2.524H69.615v6.437h8.779v2.523h-8.779v7.925h15.416v2.525H66.893z"/>
		<path fill="#F0F0F0" d="M92.805,22.054V0.12h2.721v19.41h14.324v2.525H92.805z"/>
	</g>
</g>
</svg>
