<svg xmlns="http://www.w3.org/2000/svg" width="1920" height="1080"><path d="M-207-205l381-2 218-30z" fill="#e4eff5" stroke="#e4eff5" stroke-width="1.51"/><path d="M-207-205l599-32 138-12z" fill="#dfeaf3" stroke="#dfeaf3" stroke-width="1.51"/><path d="M530-249l238 16 75-3z" fill="#c7d6e8" stroke="#c7d6e8" stroke-width="1.51"/><path d="M762 1317l-680 15 811 1z" fill="#836796" stroke="#836796" stroke-width="1.51"/><path d="M82 1332l-93 9 904-8z" fill="#8e6f9a" stroke="#8e6f9a" stroke-width="1.51"/><path d="M530-249l313 13 193-12z" fill="#c4d1e5" stroke="#c4d1e5" stroke-width="1.51"/><path d="M530-249l506 1 454-17z" fill="#c0c3df" stroke="#c0c3df" stroke-width="1.51"/><path d="M1238 1314l-345 19 688-4z" fill="#733e82" stroke="#733e82" stroke-width="1.51"/><path d="M1581 1329l-688 4 991 6z" fill="#702d7a" stroke="#702d7a" stroke-width="1.51"/><path d="M1490-265l155 10 310 2z" fill="#bf94c4" stroke="#bf94c4" stroke-width="1.51"/><path d="M1645-255l174 30 136-28z" fill="#be8ebd" stroke="#be8ebd" stroke-width="1.51"/><path d="M2070 1131l-83 5 87 205z" fill="#6b0767" stroke="#6b0767" stroke-width="1.51"/><path d="M2032-242l-43 137 112 41z" fill="#a67ea8" stroke="#a67ea8" stroke-width="1.51"/><path d="M1989-105l-7 224 119-183z" fill="#a07aa6" stroke="#a07aa6" stroke-width="1.51"/><path d="M1961 266l80 146 62-162z" fill="#87699b" stroke="#87699b" stroke-width="1.51"/><path d="M2041 412l10 94 52-256z" fill="#806295" stroke="#806295" stroke-width="1.51"/><path d="M1890 706l163 187 63-154z" fill="#7a3c87" stroke="#7a3c87" stroke-width="1.51"/><path d="M2051 506l-61 84 126 149z" fill="#794d8c" stroke="#794d8c" stroke-width="1.51"/><path d="M2052 1035l18 96 46-392z" fill="#712478" stroke="#712478" stroke-width="1.51"/><path d="M2053 893l-1 142 64-296z" fill="#732e7d" stroke="#732e7d" stroke-width="1.51"/><path d="M2103 250l-52 256 65 233z" fill="#79578e" stroke="#79578e" stroke-width="1.51"/><path d="M2070 1131l4 210 42-602z" fill="#6e1770" stroke="#6e1770" stroke-width="1.51"/><path d="M1982 119l121 131 19-148z" fill="#8f6f9c" stroke="#8f6f9c" stroke-width="1.51"/><path d="M2101-64l-119 183 140-17z" fill="#9774a0" stroke="#9774a0" stroke-width="1.51"/><path d="M2103 250l13 489 6-637z" fill="#7d6192" stroke="#7d6192" stroke-width="1.51"/><path d="M1961 266l-12 97 92 49z" fill="#8a699e" stroke="#8a699e" stroke-width="1.51"/><path d="M1982 119l-21 147 142-16z" fill="#906fa0" stroke="#906fa0" stroke-width="1.51"/><path d="M1990 590l-100 116 226 33z" fill="#7d478d" stroke="#7d478d" stroke-width="1.51"/><path d="M1890 706l14 176 149 11z" fill="#7f398a" stroke="#7f398a" stroke-width="1.51"/><path d="M1987 1136l-103 203 190 2z" fill="#670664" stroke="#670664" stroke-width="1.51"/><path d="M1938 1000l114 35 1-142z" fill="#77257d" stroke="#77257d" stroke-width="1.51"/><path d="M2052 1035l-65 101 83-5z" fill="#721472" stroke="#721472" stroke-width="1.51"/><path d="M1955-253l34 148 43-137z" fill="#ae83ad" stroke="#ae83ad" stroke-width="1.51"/><path d="M2041 412l-92-49 102 143z" fill="#836098" stroke="#836098" stroke-width="1.51"/><path d="M1949 363l41 227 61-84z" fill="#825c97" stroke="#825c97" stroke-width="1.51"/><path d="M1938 1000l49 136 65-101z" fill="#771c79" stroke="#771c79" stroke-width="1.51"/><path d="M1904 882l34 118 115-107z" fill="#7c2d84" stroke="#7c2d84" stroke-width="1.51"/><path d="M1821-97l161 216 7-224z" fill="#aa7faf" stroke="#aa7faf" stroke-width="1.51"/><path d="M1821-97l-48 160 209 56z" fill="#ad7fb3" stroke="#ad7fb3" stroke-width="1.51"/><path d="M1949 363l-141 29 182 198z" fill="#8b63a0" stroke="#8b63a0" stroke-width="1.51"/><path d="M1759 275l202-9 21-147z" fill="#9b73aa" stroke="#9b73aa" stroke-width="1.51"/><path d="M1773 63l-14 212 223-156z" fill="#a47ab1" stroke="#a47ab1" stroke-width="1.51"/><path d="M1747 1265l137 74 103-203z" fill="#740a70" stroke="#740a70" stroke-width="1.51"/><path d="M1784 1093l-37 172 240-129z" fill="#81127c" stroke="#81127c" stroke-width="1.51"/><path d="M1938 1000l-154 93 203 43z" fill="#7f1c7f" stroke="#7f1c7f" stroke-width="1.51"/><path d="M1955-253l-136 28 170 120z" fill="#b586b4" stroke="#b586b4" stroke-width="1.51"/><path d="M1819-225l2 128 168-8z" fill="#b687b7" stroke="#b687b7" stroke-width="1.51"/><path d="M1738 485l152 221 100-116z" fill="#8a569d" stroke="#8a569d" stroke-width="1.51"/><path d="M1808 392l-70 93 252 105z" fill="#8e62a4" stroke="#8e62a4" stroke-width="1.51"/><path d="M1738 485l93 228 59-7z" fill="#8a549e" stroke="#8a549e" stroke-width="1.51"/><path d="M1890 706l-59 7 73 169z" fill="#874294" stroke="#874294" stroke-width="1.51"/><path d="M1808 392l141-29 12-97z" fill="#916da5" stroke="#916da5" stroke-width="1.51"/><path d="M1759 275l49 117 153-126z" fill="#9872ac" stroke="#9872ac" stroke-width="1.51"/><path d="M1831 713l7 173 66-4z" fill="#873c92" stroke="#873c92" stroke-width="1.51"/><path d="M1783 1025l1 68 154-93z" fill="#842487" stroke="#842487" stroke-width="1.51"/><path d="M1904 882l-66 4 100 114z" fill="#83308b" stroke="#83308b" stroke-width="1.51"/><path d="M1838 886l-55 139 155-25z" fill="#852b8b" stroke="#852b8b" stroke-width="1.51"/><path d="M1747 1265l-166 64 303 10z" fill="#6f1770" stroke="#6f1770" stroke-width="1.51"/><path d="M1738 485l-82 55 175 173z" fill="#8b5fa5" stroke="#8b5fa5" stroke-width="1.51"/><path d="M1663 74l96 201 14-212z" fill="#a581b7" stroke="#a581b7" stroke-width="1.51"/><path d="M1664-36l109 99 48-160z" fill="#b188bb" stroke="#b188bb" stroke-width="1.51"/><path d="M1819-225l-174-30 176 158z" fill="#bc8fbf" stroke="#bc8fbf" stroke-width="1.51"/><path d="M1656 540l-36 204 211-31z" fill="#8b58a3" stroke="#8b58a3" stroke-width="1.51"/><path d="M1689 1019l94 6 55-139z" fill="#86308f" stroke="#86308f" stroke-width="1.51"/><path d="M1680 792l9 227 149-133z" fill="#873c96" stroke="#873c96" stroke-width="1.51"/><path d="M1831 713l-151 79 158 94z" fill="#884498" stroke="#884498" stroke-width="1.51"/><path d="M1645-255l19 219 157-61z" fill="#b88fc0" stroke="#b88fc0" stroke-width="1.51"/><path d="M1620 744l60 48 151-79z" fill="#8a4d9e" stroke="#8a4d9e" stroke-width="1.51"/><path d="M1637 1169l110 96 37-172z" fill="#811e81" stroke="#811e81" stroke-width="1.51"/><path d="M1759 275l-112 110 161 7z" fill="#9675b0" stroke="#9675b0" stroke-width="1.51"/><path d="M1647 385l91 100 70-93z" fill="#926fae" stroke="#926fae" stroke-width="1.51"/><path d="M1036-248l128 34 326-51z" fill="#bfb2d7" stroke="#bfb2d7" stroke-width="1.51"/><path d="M1663 74l-31 203 127-2z" fill="#a080b8" stroke="#a080b8" stroke-width="1.51"/><path d="M1664-36l-1 110 110-11z" fill="#ad88bc" stroke="#ad88bc" stroke-width="1.51"/><path d="M1783 1025l-94-6 95 74z" fill="#852b8b" stroke="#852b8b" stroke-width="1.51"/><path d="M1689 1019l-52 150 147-76z" fill="#852889" stroke="#852889" stroke-width="1.51"/><path d="M1632 277l15 108 112-110z" fill="#987ab5" stroke="#987ab5" stroke-width="1.51"/><path d="M1637 1169l-56 160 166-64z" fill="#77207b" stroke="#77207b" stroke-width="1.51"/><path d="M1680 792l-205 69 214 158z" fill="#89449d" stroke="#89449d" stroke-width="1.51"/><path d="M1647 385l9 155 82-55z" fill="#906dae" stroke="#906dae" stroke-width="1.51"/><path d="M1285 1289l-47 25 343 15z" fill="#73357f" stroke="#73357f" stroke-width="1.51"/><path d="M1541 1266l40 63 56-160z" fill="#78267f" stroke="#78267f" stroke-width="1.51"/><path d="M1490-265l-28 192 183-182z" fill="#bd9ccc" stroke="#bd9ccc" stroke-width="1.51"/><path d="M1515 639l105 105 36-204z" fill="#8b60aa" stroke="#8b60aa" stroke-width="1.51"/><path d="M1483 266l149 11 31-203z" fill="#a085bd" stroke="#a085bd" stroke-width="1.51"/><path d="M1645-255L1462-73l202 37z" fill="#b896c8" stroke="#b896c8" stroke-width="1.51"/><path d="M1620 744l-145 117 205-69z" fill="#8950a2" stroke="#8950a2" stroke-width="1.51"/><path d="M1468 1137l169 32 52-150z" fill="#852f8e" stroke="#852f8e" stroke-width="1.51"/><path d="M1457 982l11 155 221-118z" fill="#873996" stroke="#873996" stroke-width="1.51"/><path d="M1475 861l-18 121 232 37z" fill="#88439e" stroke="#88439e" stroke-width="1.51"/><path d="M1647 385l-146 166 155-11z" fill="#8f70b1" stroke="#8f70b1" stroke-width="1.51"/><path d="M1501 551l14 88 141-99z" fill="#8c69af" stroke="#8c69af" stroke-width="1.51"/><path d="M1439 35l44 231 180-192z" fill="#a78dc2" stroke="#a78dc2" stroke-width="1.51"/><path d="M1439 35l224 39 1-110z" fill="#af8ec3" stroke="#af8ec3" stroke-width="1.51"/><path d="M1462-73l-23 108 225-71z" fill="#b296c8" stroke="#b296c8" stroke-width="1.51"/><path d="M1437 379l64 172 146-166z" fill="#9279b7" stroke="#9279b7" stroke-width="1.51"/><path d="M1632 277l-149-11 164 119z" fill="#9980ba" stroke="#9980ba" stroke-width="1.51"/><path d="M1483 266l-46 113 210 6z" fill="#9682bc" stroke="#9682bc" stroke-width="1.51"/><path d="M1468 1137l73 129 96-97z" fill="#812c89" stroke="#812c89" stroke-width="1.51"/><path d="M1515 639l-40 222 145-117z" fill="#8a59a8" stroke="#8a59a8" stroke-width="1.51"/><path d="M296 1283l-214 49 680-15z" fill="#8f6f9b" stroke="#8f6f9b" stroke-width="1.51"/><path d="M1385 746l90 115 40-222z" fill="#8b5eaa" stroke="#8b5eaa" stroke-width="1.51"/><path d="M1541 1266l-256 23 296 40z" fill="#742d7e" stroke="#742d7e" stroke-width="1.51"/><path d="M1439 35l-102 32 146 199z" fill="#a794c6" stroke="#a794c6" stroke-width="1.51"/><path d="M1164-214l173 25 153-76z" fill="#beabd3" stroke="#beabd3" stroke-width="1.51"/><path d="M1337-189l125 116 28-192z" fill="#bca2cf" stroke="#bca2cf" stroke-width="1.51"/><path d="M1468 1137l-80 9 153 120z" fill="#83348c" stroke="#83348c" stroke-width="1.51"/><path d="M1388 1146l-103 143 256-23z" fill="#7d3688" stroke="#7d3688" stroke-width="1.51"/><path d="M1337 67l-35 165 181 34z" fill="#a294c5" stroke="#a294c5" stroke-width="1.51"/><path d="M1437 379l-87 142 151 30z" fill="#8f7bb8" stroke="#8f7bb8" stroke-width="1.51"/><path d="M1501 551l-151-30 165 118z" fill="#8d71b3" stroke="#8d71b3" stroke-width="1.51"/><path d="M1350 521l35 225 130-107z" fill="#8c6cb1" stroke="#8c6cb1" stroke-width="1.51"/><path d="M1457 982l-69 164 80-9z" fill="#883e96" stroke="#883e96" stroke-width="1.51"/><path d="M1379 959l78 23 18-121z" fill="#8a4ca2" stroke="#8a4ca2" stroke-width="1.51"/><path d="M1379 959l9 187 69-164z" fill="#89459c" stroke="#89459c" stroke-width="1.51"/><path d="M1302 232l135 147 46-113z" fill="#9a8cc1" stroke="#9a8cc1" stroke-width="1.51"/><path d="M1334-21l105 56 23-108z" fill="#b29dcb" stroke="#b29dcb" stroke-width="1.51"/><path d="M1385 746l-78 67 168 48z" fill="#8b5da9" stroke="#8b5da9" stroke-width="1.51"/><path d="M1307 813l72 146 96-98z" fill="#8b56a6" stroke="#8b56a6" stroke-width="1.51"/><path d="M1337-189l-3 168 128-52z" fill="#b8a3cf" stroke="#b8a3cf" stroke-width="1.51"/><path d="M1350 521l-114 68 149 157z" fill="#8d75b5" stroke="#8d75b5" stroke-width="1.51"/><path d="M1302 395l48 126 87-142z" fill="#9284bd" stroke="#9284bd" stroke-width="1.51"/><path d="M1302 232v163l135-16z" fill="#978ec2" stroke="#978ec2" stroke-width="1.51"/><path d="M1334-21l3 88 102-32z" fill="#ae9dcb" stroke="#ae9dcb" stroke-width="1.51"/><path d="M1307 813l-108 68 180 78z" fill="#8b5ba9" stroke="#8b5ba9" stroke-width="1.51"/><path d="M1151 960l24 218 204-219z" fill="#8a52a1" stroke="#8a52a1" stroke-width="1.51"/><path d="M1236 589l71 224 78-67z" fill="#8c6bb1" stroke="#8c6bb1" stroke-width="1.51"/><path d="M1379 959l-204 219 213-32z" fill="#894799" stroke="#894799" stroke-width="1.51"/><path d="M1175 1178l110 111 103-143z" fill="#82418f" stroke="#82418f" stroke-width="1.51"/><path d="M1199 881l-48 79 228-1z" fill="#8b5aa8" stroke="#8b5aa8" stroke-width="1.51"/><path d="M1236 589l-93 70 164 154z" fill="#8d74b5" stroke="#8d74b5" stroke-width="1.51"/><path d="M1210-19l124-2 3-168z" fill="#b7a8d1" stroke="#b7a8d1" stroke-width="1.51"/><path d="M1164-214l46 195 127-170z" fill="#baaed5" stroke="#baaed5" stroke-width="1.51"/><path d="M1219 216l83 16 35-165z" fill="#a39ac9" stroke="#a39ac9" stroke-width="1.51"/><path d="M1155 130l64 86 118-149z" fill="#a59fcc" stroke="#a59fcc" stroke-width="1.51"/><path d="M1302 395l-66 194 114-68z" fill="#8f82bc" stroke="#8f82bc" stroke-width="1.51"/><path d="M1140 403l96 186 66-194z" fill="#908ac0" stroke="#908ac0" stroke-width="1.51"/><path d="M1302 232l-83-16 83 179z" fill="#9b95c6" stroke="#9b95c6" stroke-width="1.51"/><path d="M1334-21l-124 2 127 86z" fill="#b0a3ce" stroke="#b0a3ce" stroke-width="1.51"/><path d="M1210-19l-55 149 182-63z" fill="#aca4cf" stroke="#aca4cf" stroke-width="1.51"/><path d="M1041 1252l-148 81 345-19z" fill="#784d8b" stroke="#784d8b" stroke-width="1.51"/><path d="M1219 216l-79 187 162-8z" fill="#9696c7" stroke="#9696c7" stroke-width="1.51"/><path d="M1143 659l56 222 108-68z" fill="#8c6bb0" stroke="#8c6bb0" stroke-width="1.51"/><path d="M1175 1178l63 136 47-25z" fill="#7b428a" stroke="#7b428a" stroke-width="1.51"/><path d="M1151 960l-107 189 131 29z" fill="#8b55a0" stroke="#8b55a0" stroke-width="1.51"/><path d="M1143 659l-78 43 134 179z" fill="#8d74b5" stroke="#8d74b5" stroke-width="1.51"/><path d="M1065 702l-14 141 148 38z" fill="#8c70b3" stroke="#8c70b3" stroke-width="1.51"/><path d="M1164-214L1057-88l153 69z" fill="#b8b4d7" stroke="#b8b4d7" stroke-width="1.51"/><path d="M1064 286l76 117 79-187z" fill="#999eca" stroke="#999eca" stroke-width="1.51"/><path d="M1028 547l115 112 93-70z" fill="#8d84bd" stroke="#8d84bd" stroke-width="1.51"/><path d="M1140 403l-112 144 208 42z" fill="#8e8cc1" stroke="#8e8cc1" stroke-width="1.51"/><path d="M1175 1178l-134 74 197 62z" fill="#7e498e" stroke="#7e498e" stroke-width="1.51"/><path d="M1008 1028l36 121 107-189z" fill="#8b5ea6" stroke="#8b5ea6" stroke-width="1.51"/><path d="M1035 38l120 92 55-149z" fill="#acacd2" stroke="#acacd2" stroke-width="1.51"/><path d="M1155 130l-91 156 155-70z" fill="#a0a3cd" stroke="#a0a3cd" stroke-width="1.51"/><path d="M1057-88l-22 126 175-57z" fill="#b2b2d6" stroke="#b2b2d6" stroke-width="1.51"/><path d="M1051 843l100 117 48-79z" fill="#8c66ae" stroke="#8c66ae" stroke-width="1.51"/><path d="M1006 440l22 107 112-144z" fill="#9096c6" stroke="#9096c6" stroke-width="1.51"/><path d="M1044 1149l-3 103 134-74z" fill="#865198" stroke="#865198" stroke-width="1.51"/><path d="M1036-248l21 160 107-126z" fill="#bcbbdb" stroke="#bcbbdb" stroke-width="1.51"/><path d="M1035 38l29 248 91-156z" fill="#a4a9d1" stroke="#a4a9d1" stroke-width="1.51"/><path d="M1028 547l37 155 78-43z" fill="#8d84bd" stroke="#8d84bd" stroke-width="1.51"/><path d="M1051 843l-43 185 143-68z" fill="#8c66ae" stroke="#8c66ae" stroke-width="1.51"/><path d="M1035 38L929 76l135 210z" fill="#a5b0d4" stroke="#a5b0d4" stroke-width="1.51"/><path d="M1064 286l-58 154 134-37z" fill="#949dca" stroke="#949dca" stroke-width="1.51"/><path d="M871 223l-26 195 161 22z" fill="#96aad0" stroke="#96aad0" stroke-width="1.51"/><path d="M834 888l174 140 43-185z" fill="#8d70b3" stroke="#8d70b3" stroke-width="1.51"/><path d="M939-4l96 42 22-126z" fill="#b1b9d9" stroke="#b1b9d9" stroke-width="1.51"/><path d="M1036-248l-193 12 214 148z" fill="#bcc3df" stroke="#bcc3df" stroke-width="1.51"/><path d="M843-236L939-4l118-84z" fill="#b8c2de" stroke="#b8c2de" stroke-width="1.51"/><path d="M871 223l135 217 58-154z" fill="#97a8d0" stroke="#97a8d0" stroke-width="1.51"/><path d="M929 76l-58 147 193 63z" fill="#a0b1d4" stroke="#a0b1d4" stroke-width="1.51"/><path d="M903 688l148 155 14-141z" fill="#8d7dba" stroke="#8d7dba" stroke-width="1.51"/><path d="M1028 547L903 688l162 14z" fill="#8d89bf" stroke="#8d89bf" stroke-width="1.51"/><path d="M861 1186l180 66 3-103z" fill="#86599b" stroke="#86599b" stroke-width="1.51"/><path d="M1008 1028l-130 13 166 108z" fill="#8c63a7" stroke="#8c63a7" stroke-width="1.51"/><path d="M903 688l-69 200 217-45z" fill="#8e7db9" stroke="#8e7db9" stroke-width="1.51"/><path d="M834 888l44 153 130-13z" fill="#8e6eb1" stroke="#8e6eb1" stroke-width="1.51"/><path d="M878 1041l-17 145 183-37z" fill="#8d61a4" stroke="#8d61a4" stroke-width="1.51"/><path d="M861 1186l32 147 148-81z" fill="#805995" stroke="#805995" stroke-width="1.51"/><path d="M939-4l-10 80 106-38z" fill="#adb9d8" stroke="#adb9d8" stroke-width="1.51"/><path d="M388 1256l-92 27 466 34z" fill="#8e6e9d" stroke="#8e6e9d" stroke-width="1.51"/><path d="M1006 440L829 546l199 1z" fill="#8d99c7" stroke="#8d99c7" stroke-width="1.51"/><path d="M829 546l74 142 125-141z" fill="#8e93c5" stroke="#8e93c5" stroke-width="1.51"/><path d="M845 418l-16 128 177-106z" fill="#91a0cb" stroke="#91a0cb" stroke-width="1.51"/><path d="M767-45L929 76l10-80z" fill="#b2c0dc" stroke="#b2c0dc" stroke-width="1.51"/><path d="M843-236L767-45 939-4z" fill="#bbc8e1" stroke="#bbc8e1" stroke-width="1.51"/><path d="M754 390l91 28 26-195z" fill="#99b0d4" stroke="#99b0d4" stroke-width="1.51"/><path d="M711 720l123 168 69-200z" fill="#9288bf" stroke="#9288bf" stroke-width="1.51"/><path d="M719 44l152 179 58-147z" fill="#aabddb" stroke="#aabddb" stroke-width="1.51"/><path d="M767-45l-48 89 210 32z" fill="#b2c4de" stroke="#b2c4de" stroke-width="1.51"/><path d="M711 720l13 141 110 27z" fill="#9386bf" stroke="#9386bf" stroke-width="1.51"/><path d="M768-233l-1 188 76-191z" fill="#c0cee4" stroke="#c0cee4" stroke-width="1.51"/><path d="M719 44l-33 145 185 34z" fill="#aabfdc" stroke="#aabfdc" stroke-width="1.51"/><path d="M773 1104l88 82 17-145z" fill="#9068a8" stroke="#9068a8" stroke-width="1.51"/><path d="M861 1186l-99 131 131 16z" fill="#7f5c95" stroke="#7f5c95" stroke-width="1.51"/><path d="M829 546l-87 28 161 114z" fill="#9198c7" stroke="#9198c7" stroke-width="1.51"/><path d="M742 574l-31 146 192-32z" fill="#9394c6" stroke="#9394c6" stroke-width="1.51"/><path d="M834 888L688 988l190 53z" fill="#9276b5" stroke="#9276b5" stroke-width="1.51"/><path d="M686 189l68 201 117-167z" fill="#a1b8d8" stroke="#a1b8d8" stroke-width="1.51"/><path d="M688 988l85 116 105-63z" fill="#9271b0" stroke="#9271b0" stroke-width="1.51"/><path d="M754 390l75 156 16-128z" fill="#95a7d0" stroke="#95a7d0" stroke-width="1.51"/><path d="M773 1104l-11 213 99-131z" fill="#8b64a0" stroke="#8b64a0" stroke-width="1.51"/><path d="M636 1240l-248 16 374 61z" fill="#8a6a9d" stroke="#8a6a9d" stroke-width="1.51"/><path d="M636 1240l126 77 11-213z" fill="#8b68a0" stroke="#8b68a0" stroke-width="1.51"/><path d="M754 390l-12 184 87-28z" fill="#93a5ce" stroke="#93a5ce" stroke-width="1.51"/><path d="M724 861l-36 127 146-100z" fill="#947fba" stroke="#947fba" stroke-width="1.51"/><path d="M540 255l77 173 69-239z" fill="#a4c0dd" stroke="#a4c0dd" stroke-width="1.51"/><path d="M711 720l-78 74 91 67z" fill="#958dc2" stroke="#958dc2" stroke-width="1.51"/><path d="M617 428l125 146 12-184z" fill="#97add2" stroke="#97add2" stroke-width="1.51"/><path d="M686 189l-69 239 137-38z" fill="#9ebad9" stroke="#9ebad9" stroke-width="1.51"/><path d="M602-87l165 42 1-188z" fill="#c0d2e7" stroke="#c0d2e7" stroke-width="1.51"/><path d="M688 988l-103 168 188-52z" fill="#9674b0" stroke="#9674b0" stroke-width="1.51"/><path d="M585 1156l51 84 137-136z" fill="#956ea9" stroke="#956ea9" stroke-width="1.51"/><path d="M530-249l72 162 166-146z" fill="#c7d9ea" stroke="#c7d9ea" stroke-width="1.51"/><path d="M602-87L719 44l48-89z" fill="#bacee5" stroke="#bacee5" stroke-width="1.51"/><path d="M617 428l-48 83 173 63z" fill="#98acd2" stroke="#98acd2" stroke-width="1.51"/><path d="M587 675l124 45 31-146z" fill="#969bc9" stroke="#969bc9" stroke-width="1.51"/><path d="M599 80l87 109 33-145z" fill="#b1c8e0" stroke="#b1c8e0" stroke-width="1.51"/><path d="M609 968l79 20 36-127z" fill="#9680bb" stroke="#9680bb" stroke-width="1.51"/><path d="M569 511l18 164 155-101z" fill="#97a5ce" stroke="#97a5ce" stroke-width="1.51"/><path d="M609 968l-24 188 103-168z" fill="#997ab5" stroke="#997ab5" stroke-width="1.51"/><path d="M602-87l-3 167 120-36z" fill="#b9cfe5" stroke="#b9cfe5" stroke-width="1.51"/><path d="M633 794l-24 174 115-107z" fill="#9788bf" stroke="#9788bf" stroke-width="1.51"/><path d="M587 675l46 119 78-74z" fill="#9796c7" stroke="#9796c7" stroke-width="1.51"/><path d="M599 80l-59 175 146-66z" fill="#aec7e0" stroke="#aec7e0" stroke-width="1.51"/><path d="M461 186l79 69 59-175z" fill="#b2cae1" stroke="#b2cae1" stroke-width="1.51"/><path d="M474-64L599 80l3-167z" fill="#c0d4e7" stroke="#c0d4e7" stroke-width="1.51"/><path d="M488 1152l97 4 24-188z" fill="#9c79b2" stroke="#9c79b2" stroke-width="1.51"/><path d="M396 890l213 78 24-174z" fill="#9d8bc1" stroke="#9d8bc1" stroke-width="1.51"/><path d="M488 734l-92 156 237-96z" fill="#9f93c5" stroke="#9f93c5" stroke-width="1.51"/><path d="M587 675l-99 59 145 60z" fill="#9b98c8" stroke="#9b98c8" stroke-width="1.51"/><path d="M585 1156l-97-4 148 88z" fill="#9771a9" stroke="#9771a9" stroke-width="1.51"/><path d="M488 1152l-100 104 248-16z" fill="#9671a6" stroke="#9671a6" stroke-width="1.51"/><path d="M540 255L426 420l191 8z" fill="#a4bedb" stroke="#a4bedb" stroke-width="1.51"/><path d="M569 511l-145 55 163 109z" fill="#9da9d0" stroke="#9da9d0" stroke-width="1.51"/><path d="M471 91l-10 95L599 80z" fill="#b8cde4" stroke="#b8cde4" stroke-width="1.51"/><path d="M474-64l-3 155 128-11z" fill="#bed2e6" stroke="#bed2e6" stroke-width="1.51"/><path d="M530-249L474-64l128-23z" fill="#c9daeb" stroke="#c9daeb" stroke-width="1.51"/><path d="M389 1009l99 143 121-184z" fill="#9f7fb7" stroke="#9f7fb7" stroke-width="1.51"/><path d="M426 420l143 91 48-83z" fill="#a0b5d6" stroke="#a0b5d6" stroke-width="1.51"/><path d="M396 890l-7 119 220-41z" fill="#a187bf" stroke="#a187bf" stroke-width="1.51"/><path d="M424 566l64 168 99-59z" fill="#9fa3cd" stroke="#9fa3cd" stroke-width="1.51"/><path d="M392-237l82 173 56-185z" fill="#d0dfed" stroke="#d0dfed" stroke-width="1.51"/><path d="M426 420l-2 146 145-55z" fill="#a2b3d6" stroke="#a2b3d6" stroke-width="1.51"/><path d="M-207-205l246 28 135-30z" fill="#e9f2f8" stroke="#e9f2f8" stroke-width="1.51"/><path d="M461 186l-123 91 202-22z" fill="#b2c9e1" stroke="#b2c9e1" stroke-width="1.51"/><path d="M338 277l88 143 114-165z" fill="#acc5df" stroke="#acc5df" stroke-width="1.51"/><path d="M392-237L271-82l203 18z" fill="#d1e1ed" stroke="#d1e1ed" stroke-width="1.51"/><path d="M297 108l174-17 3-155z" fill="#c3d6e8" stroke="#c3d6e8" stroke-width="1.51"/><path d="M271-82l26 190L474-64z" fill="#cbdceb" stroke="#cbdceb" stroke-width="1.51"/><path d="M424 566L321 732l167 2z" fill="#a4a4ce" stroke="#a4a4ce" stroke-width="1.51"/><path d="M321 732l75 158 92-156z" fill="#a499c8" stroke="#a499c8" stroke-width="1.51"/><path d="M389 1009l-116 162 215-19z" fill="#a47db4" stroke="#a47db4" stroke-width="1.51"/><path d="M273 1171l115 85 100-104z" fill="#9f77ab" stroke="#9f77ab" stroke-width="1.51"/><path d="M174-207l68 15 150-45z" fill="#dce8f2" stroke="#dce8f2" stroke-width="1.51"/><path d="M297 108l164 78 10-95z" fill="#bdd1e5" stroke="#bdd1e5" stroke-width="1.51"/><path d="M284 500l140 66 2-146z" fill="#a7b8d8" stroke="#a7b8d8" stroke-width="1.51"/><path d="M297 108l41 169 123-91z" fill="#bacfe4" stroke="#bacfe4" stroke-width="1.51"/><path d="M282 1014l-9 157 116-162z" fill="#a883b9" stroke="#a883b9" stroke-width="1.51"/><path d="M242-192l29 110 121-155z" fill="#d8e5f0" stroke="#d8e5f0" stroke-width="1.51"/><path d="M321 732l-55 135 130 23z" fill="#a998c8" stroke="#a998c8" stroke-width="1.51"/><path d="M284 500l37 232 103-166z" fill="#a7aed3" stroke="#a7aed3" stroke-width="1.51"/><path d="M338 277l-81 70 169 73z" fill="#afc7e0" stroke="#afc7e0" stroke-width="1.51"/><path d="M257 347l27 153 142-80z" fill="#adc1dc" stroke="#adc1dc" stroke-width="1.51"/><path d="M273 1171l23 112 92-27z" fill="#9d76a7" stroke="#9d76a7" stroke-width="1.51"/><path d="M282 1014l107-5 7-119z" fill="#a789c0" stroke="#a789c0" stroke-width="1.51"/><path d="M266 867l16 147 114-124z" fill="#a98fc4" stroke="#a98fc4" stroke-width="1.51"/><path d="M271-82L166 66l131 42z" fill="#cddeec" stroke="#cddeec" stroke-width="1.51"/><path d="M284 500l-121 44 158 188z" fill="#acb3d6" stroke="#acb3d6" stroke-width="1.51"/><path d="M163 544l5 186 153 2z" fill="#aeacd3" stroke="#aeacd3" stroke-width="1.51"/><path d="M297 108L109 212l229 65z" fill="#c0d3e7" stroke="#c0d3e7" stroke-width="1.51"/><path d="M109 212l148 135 81-70z" fill="#bacfe4" stroke="#bacfe4" stroke-width="1.51"/><path d="M150 1137l123 34 9-157z" fill="#ac82b7" stroke="#ac82b7" stroke-width="1.51"/><path d="M168 730l98 137 55-135z" fill="#ada0cc" stroke="#ada0cc" stroke-width="1.51"/><path d="M109 212l43 129 105 6z" fill="#bcd1e6" stroke="#bcd1e6" stroke-width="1.51"/><path d="M168 730l-10 119 108 18z" fill="#af9ecc" stroke="#af9ecc" stroke-width="1.51"/><path d="M266 867l-141 94 157 53z" fill="#ae90c4" stroke="#ae90c4" stroke-width="1.51"/><path d="M257 347l-105-6 132 159z" fill="#b3c7e0" stroke="#b3c7e0" stroke-width="1.51"/><path d="M152 341l11 203 121-44z" fill="#b2c2de" stroke="#b2c2de" stroke-width="1.51"/><path d="M273 1171l-123-34 146 146z" fill="#a67cae" stroke="#a67cae" stroke-width="1.51"/><path d="M150 1137l-68 195 214-49z" fill="#a17aa8" stroke="#a17aa8" stroke-width="1.51"/><path d="M166 66l-57 146 188-104z" fill="#c9daea" stroke="#c9daea" stroke-width="1.51"/><path d="M158 849l-33 112 141-94z" fill="#b097c8" stroke="#b097c8" stroke-width="1.51"/><path d="M95-77l71 143L271-82z" fill="#d6e4f0" stroke="#d6e4f0" stroke-width="1.51"/><path d="M125 961l25 176 132-123z" fill="#af8abe" stroke="#af8abe" stroke-width="1.51"/><path d="M242-192l-68-15 97 125z" fill="#dbe8f2" stroke="#dbe8f2" stroke-width="1.51"/><path d="M174-207L95-77l176-5z" fill="#dce8f2" stroke="#dce8f2" stroke-width="1.51"/><path d="M-55 1183l137 149 68-195z" fill="#ac81af" stroke="#ac81af" stroke-width="1.51"/><path d="M125 961l-165 80 190 96z" fill="#b58dc0" stroke="#b58dc0" stroke-width="1.51"/><path d="M152 341l-223 64 234 139z" fill="#bac9e2" stroke="#bac9e2" stroke-width="1.51"/><path d="M-71 405l42 176 192-37z" fill="#b9c4df" stroke="#b9c4df" stroke-width="1.51"/><path d="M-29 581l17 87 175-124z" fill="#b7bada" stroke="#b7bada" stroke-width="1.51"/><path d="M36 76l73 136 57-146z" fill="#cedeec" stroke="#cedeec" stroke-width="1.51"/><path d="M95-77L36 76l130-10z" fill="#d6e4ef" stroke="#d6e4ef" stroke-width="1.51"/><path d="M163 544L-12 668l180 62z" fill="#b4b3d6" stroke="#b4b3d6" stroke-width="1.51"/><path d="M-12 668l170 181 10-119z" fill="#b4a8d1" stroke="#b4a8d1" stroke-width="1.51"/><path d="M39-177L95-77l79-130z" fill="#e2edf5" stroke="#e2edf5" stroke-width="1.51"/><path d="M-12 668l-42 215 212-34z" fill="#b7a6d0" stroke="#b7a6d0" stroke-width="1.51"/><path d="M-54 883l179 78 33-112z" fill="#b59bca" stroke="#b59bca" stroke-width="1.51"/><path d="M109 212l-128-7 171 136z" fill="#c5d7e9" stroke="#c5d7e9" stroke-width="1.51"/><path d="M-19 205l-52 200 223-64z" fill="#c2d6e8" stroke="#c2d6e8" stroke-width="1.51"/><path d="M-40 1041l-15 142 205-46z" fill="#b789bb" stroke="#b789bb" stroke-width="1.51"/><path d="M-55 1183l44 158 93-9z" fill="#a57ea7" stroke="#a57ea7" stroke-width="1.51"/><path d="M-6-54L36 76 95-77z" fill="#dbe9f2" stroke="#dbe9f2" stroke-width="1.51"/><path d="M36 76l-55 129 128 7z" fill="#cddeec" stroke="#cddeec" stroke-width="1.51"/><path d="M-54 883l14 158 165-80z" fill="#b897c8" stroke="#b897c8" stroke-width="1.51"/><path d="M39-177L-6-54 95-77z" fill="#e2edf5" stroke="#e2edf5" stroke-width="1.51"/><path d="M-124 858l70 25 42-215z" fill="#bba8d1" stroke="#bba8d1" stroke-width="1.51"/><path d="M-6-54l-177 96L36 76z" fill="#dde9f2" stroke="#dde9f2" stroke-width="1.51"/><path d="M-183 42l164 163L36 76z" fill="#d6e3ef" stroke="#d6e3ef" stroke-width="1.51"/><path d="M-157-89L-6-54l45-123z" fill="#e6eff6" stroke="#e6eff6" stroke-width="1.51"/><path d="M-207-205l50 116 196-88z" fill="#ebf3f8" stroke="#ebf3f8" stroke-width="1.51"/><path d="M-116 394l45 11 52-200z" fill="#c4d7e9" stroke="#c4d7e9" stroke-width="1.51"/><path d="M-54 883l-111 79 125 79z" fill="#bc99c9" stroke="#bc99c9" stroke-width="1.51"/><path d="M-71 405l-88 122 130 54z" fill="#bdc7e0" stroke="#bdc7e0" stroke-width="1.51"/><path d="M-176 217l60 177 97-189z" fill="#cbdceb" stroke="#cbdceb" stroke-width="1.51"/><path d="M-183 42l7 175 157-12z" fill="#d5e3ef" stroke="#d5e3ef" stroke-width="1.51"/><path d="M-203 733l79 125 112-190z" fill="#bdaed4" stroke="#bdaed4" stroke-width="1.51"/><path d="M-55 1183l-141 112 185 46z" fill="#aa81a9" stroke="#aa81a9" stroke-width="1.51"/><path d="M-157-89l-26 131L-6-54z" fill="#e3edf5" stroke="#e3edf5" stroke-width="1.51"/><path d="M-29 581l-174 152 191-65z" fill="#bcb7d9" stroke="#bcb7d9" stroke-width="1.51"/><path d="M-178 1170l123 13 15-142z" fill="#ba8bbb" stroke="#ba8bbb" stroke-width="1.51"/><path d="M-159 527l-44 206 174-152z" fill="#bebddc" stroke="#bebddc" stroke-width="1.51"/><path d="M-116 394l-43 133 88-122z" fill="#c1cee4" stroke="#c1cee4" stroke-width="1.51"/><path d="M-178 1170l-18 125 141-112z" fill="#b486b2" stroke="#b486b2" stroke-width="1.51"/><path d="M-165 962l-13 208 138-129z" fill="#bc92c2" stroke="#bc92c2" stroke-width="1.51"/><path d="M-124 858l-41 104 111-79z" fill="#bd9fcd" stroke="#bd9fcd" stroke-width="1.51"/><path d="M-176 217l17 310 43-133z" fill="#c5d5e8" stroke="#c5d5e8" stroke-width="1.51"/><path d="M-203 733l38 229 41-104z" fill="#bfa5d1" stroke="#bfa5d1" stroke-width="1.51"/><path d="M-176 217l-27 516 44-206z" fill="#c1cbe3" stroke="#c1cbe3" stroke-width="1.51"/><path d="M-207-205l24 247 26-131z" fill="#eaf2f7" stroke="#eaf2f7" stroke-width="1.51"/><path d="M-203 733l25 437 13-208z" fill="#bf9ccc" stroke="#bf9ccc" stroke-width="1.51"/><path d="M-203 733l7 562 18-125z" fill="#bf93c3" stroke="#bf93c3" stroke-width="1.51"/><path d="M-183 42l-24-247 31 422z" fill="#e2ecf4" stroke="#e2ecf4" stroke-width="1.51"/><path d="M-207-205l4 938 27-516z" fill="#d0dfed" stroke="#d0dfed" stroke-width="1.51"/></svg>